<svg width="17" height="18" viewBox="0 0 17 18" fill="none" xmlns="http://www.w3.org/2000/svg">
<path fill-rule="evenodd" clip-rule="evenodd" d="M10.25 1.5C10.25 1.08579 10.5858 0.75 11 0.75H14.3333C14.9743 0.75 15.589 1.00461 16.0422 1.45783C16.4954 1.91104 16.75 2.52573 16.75 3.16667V14.8333C16.75 15.4743 16.4954 16.089 16.0422 16.5422C15.589 16.9954 14.9743 17.25 14.3333 17.25H11C10.5858 17.25 10.25 16.9142 10.25 16.5C10.25 16.0858 10.5858 15.75 11 15.75H14.3333C14.5764 15.75 14.8096 15.6534 14.9815 15.4815C15.1534 15.3096 15.25 15.0764 15.25 14.8333V3.16667C15.25 2.92355 15.1534 2.69039 14.9815 2.51849C14.8096 2.34658 14.5764 2.25 14.3333 2.25H11C10.5858 2.25 10.25 1.91421 10.25 1.5ZM6.303 4.303C6.5959 4.01011 7.07077 4.01011 7.36366 4.303L11.5303 8.46967C11.533 8.47236 11.5357 8.47507 11.5383 8.4778C11.6693 8.61283 11.75 8.797 11.75 9C11.75 9.20711 11.6661 9.39461 11.5303 9.53033L7.36366 13.697C7.07077 13.9899 6.5959 13.9899 6.303 13.697C6.01011 13.4041 6.01011 12.9292 6.303 12.6363L9.18934 9.75H1C0.585786 9.75 0.25 9.41421 0.25 9C0.25 8.58579 0.585786 8.25 1 8.25H9.18934L6.303 5.36366C6.01011 5.07077 6.01011 4.5959 6.303 4.303Z" fill="#FEFEFE"/>
</svg>
